Coordinates
version=1
nRows=12
nColumns=23
inDegrees=yes

Units are S.I. units (second, meters, Newtons, ...)
If the header above contains a line with 'inDegrees', this indicates whether rotational values are in degrees (yes) or radians (no).

endheader
time	pelvis_tilt	pelvis_list	pelvis_rotation	pelvis_tx	pelvis_ty	pelvis_tz	hip_flexion_r	hip_adduction_r	hip_rotation_r	knee_angle_r	knee_angle_r_beta	ankle_angle_r	subtalar_angle_r	mtp_angle_r	hip_flexion_l	hip_adduction_l	hip_rotation_l	knee_angle_l	knee_angle_l_beta	ankle_angle_l	subtalar_angle_l	mtp_angle_l
      0.00000000	     -7.43599100	      8.43235212	     -6.55944059	      2.18103866	      0.96424272	      1.02738807	    -16.21505162	     -7.80946536	     -6.87941339	     15.31605422	      0.26731557	    -16.21781773	      4.44263927	      0.00000000	     53.77695052	     -3.23643320	    -11.16117161	     88.54589582	      1.54541742	     -2.77265794	    -19.63542488	      0.00000000
      0.00666667	     -7.76924197	      7.54929824	     -6.17364181	      2.18222426	      0.96819004	      1.02745921	    -16.54169143	     -7.11624159	     -8.32488191	     16.52675999	      0.28844638	    -19.27797287	      4.28429639	      0.00000000	     54.19612775	     -3.69355487	    -10.52483960	     84.51145436	      1.47500313	     -2.71581549	    -18.50930385	      0.00000000
      0.01333333	     -8.13785323	      6.81698410	     -5.84736168	      2.18331013	      0.97181671	      1.02754215	    -16.73651198	     -6.64135825	     -9.73486996	     17.92445974	      0.31284084	    -22.00908880	      4.22204653	      0.00000000	     54.43410165	     -4.00114313	    -10.02896507	     80.23067723	      1.40028948	     -2.42343145	    -17.29080850	      0.00000000
      0.02000000	     -8.48787106	      6.23685439	     -5.53442326	      2.18430017	      0.97511556	      1.02755189	    -16.86825062	     -6.33810131	    -10.94085313	     19.51908216	      0.34067225	    -24.29942544	      4.07990534	      0.00000000	     54.42929516	     -4.13571093	     -9.67700106	     75.70311424	      1.32126860	     -2.04874551	    -15.92345514	      0.00000000
      0.02666667	     -8.76655461	      5.87327083	     -5.18310345	      2.18524562	      0.97803002	      1.02739483	    -16.97519825	     -6.25805904	    -11.96390142	     21.37496603	      0.37306353	    -25.95255986	      3.90966074	      0.00000000	     54.13164289	     -4.02903629	     -9.54580285	     70.95615985	      1.23841861	     -1.52554002	    -14.28868593	      0.00000000
      0.03333333	     -8.96124703	      5.62697693	     -4.88770479	      2.18604059	      0.98057741	      1.02727718	    -17.01440584	     -6.31714455	    -12.68282001	     23.54924794	      0.41101191	    -26.89518289	      3.86046952	      0.00000000	     53.52050284	     -3.83559352	     -9.58675843	     66.00286303	      1.15196728	     -0.90975393	    -12.41937026	      0.00000000
      0.04000000	     -9.15916995	      5.46842755	     -4.47606961	      2.18680112	      0.98269570	      1.02689521	    -16.97760447	     -6.32139460	    -12.89514756	     25.89000798	      0.45186588	    -27.31723660	      3.35973667	      0.00000000	     52.71722076	     -3.43728048	     -9.68257900	     60.85978148	      1.06220357	     -0.35275455	    -10.45634530	      0.00000000
      0.04666667	     -9.26027658	      5.39692109	     -4.07184232	      2.18745871	      0.98446535	      1.02645775	    -16.88812545	     -6.35274525	    -12.73316143	     28.50582758	      0.49752055	    -27.12804345	      2.86630240	      0.00000000	     51.62487374	     -2.95336203	     -9.94643851	     55.57769845	      0.97001383	      0.23995614	     -8.27005986	      0.00000000
      0.05333333	     -9.26910631	      5.44602482	     -3.78491438	      2.18806767	      0.98590414	      1.02618709	    -16.71579912	     -6.50011979	    -12.28433307	     31.40245913	      0.54807631	    -26.53512960	      2.41559454	      0.00000000	     50.24927433	     -2.44061049	    -10.46555335	     50.20383406	      0.87622220	      0.85986925	     -5.81049291	      0.00000000
      0.06000000	     -9.19447614	      5.54029944	     -3.50739142	      2.18861493	      0.98706249	      1.02587301	    -16.47915361	     -6.60757659	    -11.55784028	     34.51405524	      0.60238390	    -25.64369430	      1.95888254	      0.00000000	     48.64784039	     -1.84656074	    -11.08858047	     44.80712032	      0.78203178	      1.41127222	     -3.15915692	      0.00000000
      0.06666667	     -9.09247535	      5.64344292	     -3.24864444	      2.18917776	      0.98787903	      1.02556446	    -16.13613878	     -6.65468553	    -10.66694779	     37.79841291	      0.65970676	    -24.53987926	      1.42833830	      0.00000000	     46.91285701	     -1.18459980	    -11.71856098	     39.46837986	      0.68885318	      1.86010926	     -0.48643162	      0.00000000
      0.07333333	     -8.90724692	      5.74472897	     -3.01522985	      2.18965782	      0.98838395	      1.02523105	    -15.71751036	     -6.66897241	     -9.73185477	     41.29277860	      0.72069494	    -23.39954890	      0.79329590	      0.00000000	     45.04250469	     -0.44694664	    -12.25913682	     34.30687375	      0.59876790	      2.12665014	      2.05306558	      0.00000000
